<?xml version="1.0" standalone="no"?><svg xmlns="http://www.w3.org/2000/svg" viewBox="0 0 1440 320"><path fill="#123045" fill-opacity="1" d="M0,192L21.8,186.7C43.6,181,87,171,131,144C174.5,117,218,75,262,85.3C305.5,96,349,160,393,186.7C436.4,213,480,203,524,165.3C567.3,128,611,64,655,42.7C698.2,21,742,43,785,80C829.1,117,873,171,916,192C960,213,1004,203,1047,213.3C1090.9,224,1135,256,1178,250.7C1221.8,245,1265,203,1309,165.3C1352.7,128,1396,96,1418,80L1440,64L1440,0L1418.2,0C1396.4,0,1353,0,1309,0C1265.5,0,1222,0,1178,0C1134.5,0,1091,0,1047,0C1003.6,0,960,0,916,0C872.7,0,829,0,785,0C741.8,0,698,0,655,0C610.9,0,567,0,524,0C480,0,436,0,393,0C349.1,0,305,0,262,0C218.2,0,175,0,131,0C87.3,0,44,0,22,0L0,0Z"></path></svg>