<?xml version="1.0" standalone="no"?><svg xmlns="http://www.w3.org/2000/svg" viewBox="0 0 1440 320"><path fill="#123045" fill-opacity="1" d="M0,192L21.8,186.7C43.6,181,87,171,131,144C174.5,117,218,75,262,85.3C305.5,96,349,160,393,186.7C436.4,213,480,203,524,165.3C567.3,128,611,64,655,42.7C698.2,21,742,43,785,80C829.1,117,873,171,916,192C960,213,1004,203,1047,213.3C1090.9,224,1135,256,1178,250.7C1221.8,245,1265,203,1309,165.3C1352.7,128,1396,96,1418,80L1440,64L1440,320L1418.2,320C1396.4,320,1353,320,1309,320C1265.5,320,1222,320,1178,320C1134.5,320,1091,320,1047,320C1003.6,320,960,320,916,320C872.7,320,829,320,785,320C741.8,320,698,320,655,320C610.9,320,567,320,524,320C480,320,436,320,393,320C349.1,320,305,320,262,320C218.2,320,175,320,131,320C87.3,320,44,320,22,320L0,320Z"></path></svg>